<?xml version="1.0" standalone="no"?>
<!DOCTYPE svg PUBLIC "-//W3C//DTD SVG 20010904//EN"
 "http://www.w3.org/TR/2001/REC-SVG-20010904/DTD/svg10.dtd">
<svg version="1.0" xmlns="http://www.w3.org/2000/svg"
 width="1280.000000pt" height="698.000000pt" viewBox="0 0 1280.000000 698.000000"
 preserveAspectRatio="xMidYMid meet">
<g transform="translate(0.000000,698.000000) scale(0.100000,-0.100000)"
fill="#000000" stroke="none">
<path d="M6750 6971 c-25 -5 -90 -14 -145 -21 -131 -15 -359 -70 -482 -116
-230 -85 -484 -231 -668 -385 -49 -42 -140 -128 -201 -192 -62 -64 -117 -117
-123 -117 -6 0 -75 31 -154 70 -303 148 -574 215 -913 227 -385 13 -731 -60
-1069 -226 -292 -144 -570 -365 -770 -616 -196 -244 -348 -551 -428 -863 l-33
-127 -44 -13 c-424 -122 -722 -287 -1004 -553 -366 -346 -608 -810 -680 -1299
-43 -299 -44 -353 -12 -599 78 -586 354 -1102 786 -1463 329 -276 715 -449
1145 -514 163 -25 476 -25 635 -1 136 21 310 64 435 107 122 42 350 155 460
227 50 33 98 62 105 65 8 3 47 -4 85 -14 350 -97 779 -98 1143 -4 70 19 64 21
152 -50 160 -128 396 -261 600 -339 126 -48 328 -100 470 -120 63 -8 145 -20
182 -25 84 -13 222 -13 285 -1 26 5 93 14 148 21 395 46 818 227 1139 487 l58
48 57 -33 c503 -293 1062 -388 1619 -276 141 28 347 94 477 152 l90 40 80 -14
c117 -21 460 -29 596 -14 770 85 1446 557 1784 1245 112 229 177 437 210 675
8 63 20 143 25 176 13 79 13 219 0 298 -5 33 -17 113 -25 176 -87 633 -457
1210 -1005 1570 -129 84 -369 200 -515 249 -197 65 -373 98 -580 110 l-131 7
-120 119 c-386 385 -868 612 -1407 660 -89 8 -78 -2 -167 151 -93 160 -202
298 -354 450 -373 372 -795 578 -1331 649 -147 19 -345 27 -405 16z"/>
</g>
</svg>
